<mxfile host="65bd71144e">
    <diagram id="Egp4V7MI-BXR0PS87YDN" name="Страница 1">
        <mxGraphModel dx="797" dy="610" grid="1" gridSize="10" guides="1" tooltips="1" connect="1" arrows="1" fold="1" page="1" pageScale="1" pageWidth="1169" pageHeight="827" background="none" math="0" shadow="0">
            <root>
                <mxCell id="0"/>
                <mxCell id="1" parent="0"/>
                <mxCell id="2" value="User" style="shape=table;startSize=30;container=1;collapsible=1;childLayout=tableLayout;fixedRows=1;rowLines=1;fontStyle=1;align=center;resizeLast=1;fontFamily=Iosevka;swimlaneFillColor=default;rounded=1;spacingLeft=4;top=1;backgroundOutline=0;swimlaneLine=0;strokeWidth=1;fillColor=none;" parent="1" vertex="1">
                    <mxGeometry x="120" y="160" width="180" height="270" as="geometry">
                        <mxRectangle x="120" y="180" width="70" height="30" as="alternateBounds"/>
                    </mxGeometry>
                </mxCell>
                <mxCell id="3" value="" style="shape=tableRow;horizontal=0;startSize=0;swimlaneHead=0;swimlaneBody=0;collapsible=0;dropTarget=0;points=[[0,0.5],[1,0.5]];portConstraint=eastwest;top=1;left=0;right=0;bottom=1;fontFamily=Iosevka;align=left;spacingLeft=4;backgroundOutline=0;swimlaneLine=0;strokeWidth=1;rounded=1;fillColor=none;" parent="2" vertex="1">
                    <mxGeometry y="30" width="180" height="30" as="geometry"/>
                </mxCell>
                <mxCell id="4" value="PK(uuid)" style="shape=partialRectangle;connectable=0;top=1;left=0;bottom=0;right=0;fontStyle=1;overflow=hidden;fontFamily=Iosevka;align=left;spacingLeft=4;backgroundOutline=0;swimlaneLine=0;strokeWidth=1;rounded=1;fillColor=none;" parent="3" vertex="1">
                    <mxGeometry width="60" height="30" as="geometry">
                        <mxRectangle width="60" height="30" as="alternateBounds"/>
                    </mxGeometry>
                </mxCell>
                <mxCell id="5" value="id" style="shape=partialRectangle;connectable=0;top=0;left=0;bottom=0;right=0;align=left;spacingLeft=4;fontStyle=5;overflow=hidden;fontFamily=Iosevka;backgroundOutline=0;swimlaneLine=0;strokeWidth=1;rounded=1;fillColor=none;" parent="3" vertex="1">
                    <mxGeometry x="60" width="120" height="30" as="geometry">
                        <mxRectangle width="120" height="30" as="alternateBounds"/>
                    </mxGeometry>
                </mxCell>
                <mxCell id="6" value="" style="shape=tableRow;horizontal=0;startSize=0;swimlaneHead=0;swimlaneBody=0;collapsible=0;dropTarget=0;points=[[0,0.5],[1,0.5]];portConstraint=eastwest;top=1;left=0;right=0;bottom=0;fontFamily=Iosevka;align=left;spacingLeft=4;backgroundOutline=0;swimlaneLine=0;strokeWidth=1;rounded=1;fillColor=none;" parent="2" vertex="1">
                    <mxGeometry y="60" width="180" height="30" as="geometry"/>
                </mxCell>
                <mxCell id="7" value="Str" style="shape=partialRectangle;connectable=0;top=1;left=0;bottom=0;right=0;editable=1;overflow=hidden;fontFamily=Iosevka;align=left;spacingLeft=4;backgroundOutline=0;swimlaneLine=0;strokeWidth=1;rounded=1;fillColor=none;" parent="6" vertex="1">
                    <mxGeometry width="60" height="30" as="geometry">
                        <mxRectangle width="60" height="30" as="alternateBounds"/>
                    </mxGeometry>
                </mxCell>
                <mxCell id="8" value="first_name" style="shape=partialRectangle;connectable=0;top=1;left=0;bottom=0;right=0;align=left;spacingLeft=4;overflow=hidden;fontFamily=Iosevka;backgroundOutline=0;swimlaneLine=0;strokeWidth=1;rounded=1;fillColor=none;" parent="6" vertex="1">
                    <mxGeometry x="60" width="120" height="30" as="geometry">
                        <mxRectangle width="120" height="30" as="alternateBounds"/>
                    </mxGeometry>
                </mxCell>
                <mxCell id="9" value="" style="shape=tableRow;horizontal=0;startSize=0;swimlaneHead=0;swimlaneBody=0;collapsible=0;dropTarget=0;points=[[0,0.5],[1,0.5]];portConstraint=eastwest;top=1;left=0;right=0;bottom=0;fontFamily=Iosevka;align=left;spacingLeft=4;backgroundOutline=0;swimlaneLine=0;strokeWidth=1;rounded=1;fillColor=none;" parent="2" vertex="1">
                    <mxGeometry y="90" width="180" height="30" as="geometry"/>
                </mxCell>
                <mxCell id="10" value="Str" style="shape=partialRectangle;connectable=0;top=1;left=0;bottom=0;right=0;editable=1;overflow=hidden;fontFamily=Iosevka;align=left;spacingLeft=4;backgroundOutline=0;swimlaneLine=0;strokeWidth=1;rounded=1;fillColor=none;" parent="9" vertex="1">
                    <mxGeometry width="60" height="30" as="geometry">
                        <mxRectangle width="60" height="30" as="alternateBounds"/>
                    </mxGeometry>
                </mxCell>
                <mxCell id="11" value="last_name" style="shape=partialRectangle;connectable=0;top=1;left=0;bottom=0;right=0;align=left;spacingLeft=4;overflow=hidden;fontFamily=Iosevka;backgroundOutline=0;swimlaneLine=0;strokeWidth=1;rounded=1;fillColor=none;" parent="9" vertex="1">
                    <mxGeometry x="60" width="120" height="30" as="geometry">
                        <mxRectangle width="120" height="30" as="alternateBounds"/>
                    </mxGeometry>
                </mxCell>
                <mxCell id="12" value="" style="shape=tableRow;horizontal=0;startSize=0;swimlaneHead=0;swimlaneBody=0;collapsible=0;dropTarget=0;points=[[0,0.5],[1,0.5]];portConstraint=eastwest;top=1;left=0;right=0;bottom=0;fontFamily=Iosevka;align=left;spacingLeft=4;backgroundOutline=0;swimlaneLine=0;strokeWidth=1;rounded=1;fillColor=none;" parent="2" vertex="1">
                    <mxGeometry y="120" width="180" height="30" as="geometry"/>
                </mxCell>
                <mxCell id="13" value="Str" style="shape=partialRectangle;connectable=0;top=1;left=0;bottom=0;right=0;editable=1;overflow=hidden;fontFamily=Iosevka;align=left;spacingLeft=4;backgroundOutline=0;swimlaneLine=0;strokeWidth=1;rounded=1;fillColor=none;" parent="12" vertex="1">
                    <mxGeometry width="60" height="30" as="geometry">
                        <mxRectangle width="60" height="30" as="alternateBounds"/>
                    </mxGeometry>
                </mxCell>
                <mxCell id="14" value="user_name" style="shape=partialRectangle;connectable=0;top=1;left=0;bottom=0;right=0;align=left;spacingLeft=4;overflow=hidden;fontFamily=Iosevka;backgroundOutline=0;swimlaneLine=0;strokeWidth=1;rounded=1;fillColor=none;" parent="12" vertex="1">
                    <mxGeometry x="60" width="120" height="30" as="geometry">
                        <mxRectangle width="120" height="30" as="alternateBounds"/>
                    </mxGeometry>
                </mxCell>
                <mxCell id="28" value="" style="shape=tableRow;horizontal=0;startSize=0;swimlaneHead=0;swimlaneBody=0;collapsible=0;dropTarget=0;points=[[0,0.5],[1,0.5]];portConstraint=eastwest;top=1;left=0;right=0;bottom=0;fontFamily=Iosevka;align=left;spacingLeft=4;backgroundOutline=0;swimlaneLine=0;strokeWidth=1;rounded=1;fillColor=none;" parent="2" vertex="1">
                    <mxGeometry y="150" width="180" height="30" as="geometry"/>
                </mxCell>
                <mxCell id="29" value="Str" style="shape=partialRectangle;connectable=0;top=1;left=0;bottom=0;right=0;editable=1;overflow=hidden;fontFamily=Iosevka;align=left;spacingLeft=4;backgroundOutline=0;swimlaneLine=0;strokeWidth=1;rounded=1;fillColor=none;" parent="28" vertex="1">
                    <mxGeometry width="60" height="30" as="geometry">
                        <mxRectangle width="60" height="30" as="alternateBounds"/>
                    </mxGeometry>
                </mxCell>
                <mxCell id="30" value="password" style="shape=partialRectangle;connectable=0;top=1;left=0;bottom=0;right=0;align=left;spacingLeft=4;overflow=hidden;fontFamily=Iosevka;backgroundOutline=0;swimlaneLine=0;strokeWidth=1;rounded=1;fillColor=none;" parent="28" vertex="1">
                    <mxGeometry x="60" width="120" height="30" as="geometry">
                        <mxRectangle width="120" height="30" as="alternateBounds"/>
                    </mxGeometry>
                </mxCell>
                <mxCell id="31" value="" style="shape=tableRow;horizontal=0;startSize=0;swimlaneHead=0;swimlaneBody=0;collapsible=0;dropTarget=0;points=[[0,0.5],[1,0.5]];portConstraint=eastwest;top=1;left=0;right=0;bottom=0;fontFamily=Iosevka;align=left;spacingLeft=4;backgroundOutline=0;swimlaneLine=0;strokeWidth=1;rounded=1;fillColor=none;" parent="2" vertex="1">
                    <mxGeometry y="180" width="180" height="30" as="geometry"/>
                </mxCell>
                <mxCell id="32" value="Basket" style="shape=partialRectangle;connectable=0;top=1;left=0;bottom=0;right=0;editable=1;overflow=hidden;fontFamily=Iosevka;align=left;spacingLeft=4;backgroundOutline=0;swimlaneLine=0;strokeWidth=1;rounded=1;fillColor=none;" parent="31" vertex="1">
                    <mxGeometry width="60" height="30" as="geometry">
                        <mxRectangle width="60" height="30" as="alternateBounds"/>
                    </mxGeometry>
                </mxCell>
                <mxCell id="33" value="basket" style="shape=partialRectangle;connectable=0;top=1;left=0;bottom=0;right=0;align=left;spacingLeft=4;overflow=hidden;fontFamily=Iosevka;backgroundOutline=0;swimlaneLine=0;strokeWidth=1;rounded=1;fillColor=none;" parent="31" vertex="1">
                    <mxGeometry x="60" width="120" height="30" as="geometry">
                        <mxRectangle width="120" height="30" as="alternateBounds"/>
                    </mxGeometry>
                </mxCell>
                <mxCell id="110" value="" style="shape=tableRow;horizontal=0;startSize=0;swimlaneHead=0;swimlaneBody=0;collapsible=0;dropTarget=0;points=[[0,0.5],[1,0.5]];portConstraint=eastwest;top=1;left=0;right=0;bottom=0;fontFamily=Iosevka;align=left;spacingLeft=4;backgroundOutline=0;swimlaneLine=0;strokeWidth=1;rounded=1;fillColor=none;" vertex="1" parent="2">
                    <mxGeometry y="210" width="180" height="30" as="geometry"/>
                </mxCell>
                <mxCell id="111" value="Date" style="shape=partialRectangle;connectable=0;top=1;left=0;bottom=0;right=0;editable=1;overflow=hidden;fontFamily=Iosevka;align=left;spacingLeft=4;backgroundOutline=0;swimlaneLine=0;strokeWidth=1;rounded=1;fillColor=none;" vertex="1" parent="110">
                    <mxGeometry width="60" height="30" as="geometry">
                        <mxRectangle width="60" height="30" as="alternateBounds"/>
                    </mxGeometry>
                </mxCell>
                <mxCell id="112" value="updated_at" style="shape=partialRectangle;connectable=0;top=1;left=0;bottom=0;right=0;align=left;spacingLeft=4;overflow=hidden;fontFamily=Iosevka;backgroundOutline=0;swimlaneLine=0;strokeWidth=1;rounded=1;fillColor=none;" vertex="1" parent="110">
                    <mxGeometry x="60" width="120" height="30" as="geometry">
                        <mxRectangle width="120" height="30" as="alternateBounds"/>
                    </mxGeometry>
                </mxCell>
                <mxCell id="83" value="" style="shape=tableRow;horizontal=0;startSize=0;swimlaneHead=0;swimlaneBody=0;collapsible=0;dropTarget=0;points=[[0,0.5],[1,0.5]];portConstraint=eastwest;top=1;left=0;right=0;bottom=0;fontFamily=Iosevka;align=left;spacingLeft=4;backgroundOutline=0;swimlaneLine=0;strokeWidth=1;rounded=1;fillColor=none;" vertex="1" parent="2">
                    <mxGeometry y="240" width="180" height="30" as="geometry"/>
                </mxCell>
                <mxCell id="84" value="Date" style="shape=partialRectangle;connectable=0;top=1;left=0;bottom=0;right=0;editable=1;overflow=hidden;fontFamily=Iosevka;align=left;spacingLeft=4;backgroundOutline=0;swimlaneLine=0;strokeWidth=1;rounded=1;fillColor=none;" vertex="1" parent="83">
                    <mxGeometry width="60" height="30" as="geometry">
                        <mxRectangle width="60" height="30" as="alternateBounds"/>
                    </mxGeometry>
                </mxCell>
                <mxCell id="85" value="created_at" style="shape=partialRectangle;connectable=0;top=1;left=0;bottom=0;right=0;align=left;spacingLeft=4;overflow=hidden;fontFamily=Iosevka;backgroundOutline=0;swimlaneLine=0;strokeWidth=1;rounded=1;fillColor=none;" vertex="1" parent="83">
                    <mxGeometry x="60" width="120" height="30" as="geometry">
                        <mxRectangle width="120" height="30" as="alternateBounds"/>
                    </mxGeometry>
                </mxCell>
                <mxCell id="47" value="Basket" style="shape=table;startSize=30;container=1;collapsible=1;childLayout=tableLayout;fixedRows=1;rowLines=1;fontStyle=1;align=center;resizeLast=1;fontFamily=Iosevka;top=1;rounded=1;spacingLeft=4;backgroundOutline=0;swimlaneLine=0;strokeWidth=1;fillStyle=solid;fillColor=none;" vertex="1" parent="1">
                    <mxGeometry x="400" y="160" width="180" height="210" as="geometry"/>
                </mxCell>
                <mxCell id="48" value="" style="shape=tableRow;horizontal=0;startSize=0;swimlaneHead=0;swimlaneBody=0;collapsible=0;dropTarget=0;points=[[0,0.5],[1,0.5]];portConstraint=eastwest;top=1;left=0;right=0;bottom=1;fontFamily=Iosevka;spacingLeft=4;align=left;backgroundOutline=0;swimlaneLine=0;strokeWidth=1;rounded=1;fillColor=none;" vertex="1" parent="47">
                    <mxGeometry y="30" width="180" height="30" as="geometry"/>
                </mxCell>
                <mxCell id="49" value="user_id" style="shape=partialRectangle;connectable=0;top=1;left=0;bottom=0;right=0;fontStyle=1;overflow=hidden;fontFamily=Iosevka;spacingLeft=4;align=left;backgroundOutline=0;swimlaneLine=0;strokeWidth=1;rounded=1;fillColor=none;" vertex="1" parent="48">
                    <mxGeometry width="60" height="30" as="geometry">
                        <mxRectangle width="60" height="30" as="alternateBounds"/>
                    </mxGeometry>
                </mxCell>
                <mxCell id="50" value="id" style="shape=partialRectangle;connectable=0;top=1;left=0;bottom=0;right=0;align=left;spacingLeft=4;fontStyle=5;overflow=hidden;fontFamily=Iosevka;backgroundOutline=0;swimlaneLine=0;strokeWidth=1;rounded=1;fillColor=none;" vertex="1" parent="48">
                    <mxGeometry x="60" width="120" height="30" as="geometry">
                        <mxRectangle width="120" height="30" as="alternateBounds"/>
                    </mxGeometry>
                </mxCell>
                <mxCell id="51" value="" style="shape=tableRow;horizontal=0;startSize=0;swimlaneHead=0;swimlaneBody=0;collapsible=0;dropTarget=0;points=[[0,0.5],[1,0.5]];portConstraint=eastwest;top=1;left=0;right=0;bottom=0;fontFamily=Iosevka;spacingLeft=4;align=left;backgroundOutline=0;swimlaneLine=0;strokeWidth=1;rounded=1;fillColor=none;" vertex="1" parent="47">
                    <mxGeometry y="60" width="180" height="30" as="geometry"/>
                </mxCell>
                <mxCell id="52" value="uuid" style="shape=partialRectangle;connectable=0;top=1;left=0;bottom=0;right=0;editable=1;overflow=hidden;fontFamily=Iosevka;spacingLeft=4;align=left;backgroundOutline=0;swimlaneLine=0;strokeWidth=1;rounded=1;fillColor=none;" vertex="1" parent="51">
                    <mxGeometry width="60" height="30" as="geometry">
                        <mxRectangle width="60" height="30" as="alternateBounds"/>
                    </mxGeometry>
                </mxCell>
                <mxCell id="53" value="user_id" style="shape=partialRectangle;connectable=0;top=1;left=0;bottom=0;right=0;align=left;spacingLeft=4;overflow=hidden;fontFamily=Iosevka;backgroundOutline=0;swimlaneLine=0;strokeWidth=1;rounded=1;fillColor=none;" vertex="1" parent="51">
                    <mxGeometry x="60" width="120" height="30" as="geometry">
                        <mxRectangle width="120" height="30" as="alternateBounds"/>
                    </mxGeometry>
                </mxCell>
                <mxCell id="54" value="" style="shape=tableRow;horizontal=0;startSize=0;swimlaneHead=0;swimlaneBody=0;collapsible=0;dropTarget=0;points=[[0,0.5],[1,0.5]];portConstraint=eastwest;top=1;left=0;right=0;bottom=0;fontFamily=Iosevka;spacingLeft=4;align=left;backgroundOutline=0;swimlaneLine=0;strokeWidth=1;rounded=1;fillColor=none;" vertex="1" parent="47">
                    <mxGeometry y="90" width="180" height="30" as="geometry"/>
                </mxCell>
                <mxCell id="55" value="User" style="shape=partialRectangle;connectable=0;top=1;left=0;bottom=0;right=0;editable=1;overflow=hidden;fontFamily=Iosevka;spacingLeft=4;align=left;backgroundOutline=0;swimlaneLine=0;strokeWidth=1;rounded=1;fillColor=none;" vertex="1" parent="54">
                    <mxGeometry width="60" height="30" as="geometry">
                        <mxRectangle width="60" height="30" as="alternateBounds"/>
                    </mxGeometry>
                </mxCell>
                <mxCell id="56" value="user" style="shape=partialRectangle;connectable=0;top=1;left=0;bottom=0;right=0;align=left;spacingLeft=4;overflow=hidden;fontFamily=Iosevka;backgroundOutline=0;swimlaneLine=0;strokeWidth=1;rounded=1;fillColor=none;" vertex="1" parent="54">
                    <mxGeometry x="60" width="120" height="30" as="geometry">
                        <mxRectangle width="120" height="30" as="alternateBounds"/>
                    </mxGeometry>
                </mxCell>
                <mxCell id="57" value="" style="shape=tableRow;horizontal=0;startSize=0;swimlaneHead=0;swimlaneBody=0;collapsible=0;dropTarget=0;points=[[0,0.5],[1,0.5]];portConstraint=eastwest;top=1;left=0;right=0;bottom=0;fontFamily=Iosevka;spacingLeft=4;align=left;backgroundOutline=0;swimlaneLine=0;strokeWidth=1;rounded=1;fillColor=none;" vertex="1" parent="47">
                    <mxGeometry y="120" width="180" height="30" as="geometry"/>
                </mxCell>
                <mxCell id="58" value="Product[]" style="shape=partialRectangle;connectable=0;top=1;left=0;bottom=0;right=0;editable=1;overflow=hidden;fontFamily=Iosevka;spacingLeft=4;align=left;backgroundOutline=0;swimlaneLine=0;strokeWidth=1;rounded=1;fillColor=none;" vertex="1" parent="57">
                    <mxGeometry width="60" height="30" as="geometry">
                        <mxRectangle width="60" height="30" as="alternateBounds"/>
                    </mxGeometry>
                </mxCell>
                <mxCell id="59" value="products" style="shape=partialRectangle;connectable=0;top=1;left=0;bottom=0;right=0;align=left;spacingLeft=4;overflow=hidden;fontFamily=Iosevka;backgroundOutline=0;swimlaneLine=0;strokeWidth=1;rounded=1;fillColor=none;" vertex="1" parent="57">
                    <mxGeometry x="60" width="120" height="30" as="geometry">
                        <mxRectangle width="120" height="30" as="alternateBounds"/>
                    </mxGeometry>
                </mxCell>
                <mxCell id="113" value="" style="shape=tableRow;horizontal=0;startSize=0;swimlaneHead=0;swimlaneBody=0;collapsible=0;dropTarget=0;points=[[0,0.5],[1,0.5]];portConstraint=eastwest;top=1;left=0;right=0;bottom=0;fontFamily=Iosevka;align=left;spacingLeft=4;backgroundOutline=0;swimlaneLine=0;strokeWidth=1;rounded=1;fillColor=none;" vertex="1" parent="47">
                    <mxGeometry y="150" width="180" height="30" as="geometry"/>
                </mxCell>
                <mxCell id="114" value="Date" style="shape=partialRectangle;connectable=0;top=1;left=0;bottom=0;right=0;editable=1;overflow=hidden;fontFamily=Iosevka;align=left;spacingLeft=4;backgroundOutline=0;swimlaneLine=0;strokeWidth=1;rounded=1;fillColor=none;" vertex="1" parent="113">
                    <mxGeometry width="60" height="30" as="geometry">
                        <mxRectangle width="60" height="30" as="alternateBounds"/>
                    </mxGeometry>
                </mxCell>
                <mxCell id="115" value="updated_at" style="shape=partialRectangle;connectable=0;top=1;left=0;bottom=0;right=0;align=left;spacingLeft=4;overflow=hidden;fontFamily=Iosevka;backgroundOutline=0;swimlaneLine=0;strokeWidth=1;rounded=1;fillColor=none;" vertex="1" parent="113">
                    <mxGeometry x="60" width="120" height="30" as="geometry">
                        <mxRectangle width="120" height="30" as="alternateBounds"/>
                    </mxGeometry>
                </mxCell>
                <mxCell id="116" value="" style="shape=tableRow;horizontal=0;startSize=0;swimlaneHead=0;swimlaneBody=0;collapsible=0;dropTarget=0;points=[[0,0.5],[1,0.5]];portConstraint=eastwest;top=1;left=0;right=0;bottom=0;fontFamily=Iosevka;align=left;spacingLeft=4;backgroundOutline=0;swimlaneLine=0;strokeWidth=1;rounded=1;fillColor=none;" vertex="1" parent="47">
                    <mxGeometry y="180" width="180" height="30" as="geometry"/>
                </mxCell>
                <mxCell id="117" value="Date" style="shape=partialRectangle;connectable=0;top=1;left=0;bottom=0;right=0;editable=1;overflow=hidden;fontFamily=Iosevka;align=left;spacingLeft=4;backgroundOutline=0;swimlaneLine=0;strokeWidth=1;rounded=1;fillColor=none;" vertex="1" parent="116">
                    <mxGeometry width="60" height="30" as="geometry">
                        <mxRectangle width="60" height="30" as="alternateBounds"/>
                    </mxGeometry>
                </mxCell>
                <mxCell id="118" value="created_at" style="shape=partialRectangle;connectable=0;top=1;left=0;bottom=0;right=0;align=left;spacingLeft=4;overflow=hidden;fontFamily=Iosevka;backgroundOutline=0;swimlaneLine=0;strokeWidth=1;rounded=1;fillColor=none;" vertex="1" parent="116">
                    <mxGeometry x="60" width="120" height="30" as="geometry">
                        <mxRectangle width="120" height="30" as="alternateBounds"/>
                    </mxGeometry>
                </mxCell>
                <mxCell id="61" value="" style="edgeStyle=entityRelationEdgeStyle;fontSize=12;html=1;endArrow=ERmandOne;startArrow=ERmandOne;fontFamily=Iosevka;exitX=1;exitY=0.5;exitDx=0;exitDy=0;entryX=0;entryY=0.5;entryDx=0;entryDy=0;spacingLeft=4;align=left;backgroundOutline=0;swimlaneLine=0;strokeWidth=1;fillColor=none;" edge="1" parent="1" source="31" target="48">
                    <mxGeometry width="100" height="100" relative="1" as="geometry">
                        <mxPoint x="310" y="340" as="sourcePoint"/>
                        <mxPoint x="410" y="240" as="targetPoint"/>
                    </mxGeometry>
                </mxCell>
                <mxCell id="62" value="Product" style="shape=table;startSize=30;container=1;collapsible=1;childLayout=tableLayout;fixedRows=1;rowLines=0;fontStyle=1;align=center;resizeLast=1;fontFamily=Iosevka;top=1;rounded=1;spacingLeft=4;backgroundOutline=0;swimlaneLine=0;strokeWidth=1;fillColor=none;" vertex="1" parent="1">
                    <mxGeometry x="680" y="160" width="180" height="360" as="geometry"/>
                </mxCell>
                <mxCell id="63" value="" style="shape=tableRow;horizontal=0;startSize=0;swimlaneHead=0;swimlaneBody=0;collapsible=0;dropTarget=0;points=[[0,0.5],[1,0.5]];portConstraint=eastwest;top=1;left=0;right=0;bottom=1;fontFamily=Iosevka;spacingLeft=4;align=left;backgroundOutline=0;swimlaneLine=0;strokeWidth=1;rounded=1;fillColor=none;" vertex="1" parent="62">
                    <mxGeometry y="30" width="180" height="30" as="geometry"/>
                </mxCell>
                <mxCell id="64" value="PK(int)" style="shape=partialRectangle;connectable=0;top=1;left=0;bottom=0;right=0;fontStyle=1;overflow=hidden;fontFamily=Iosevka;spacingLeft=4;align=left;backgroundOutline=0;swimlaneLine=0;strokeWidth=1;rounded=1;fillColor=none;" vertex="1" parent="63">
                    <mxGeometry width="60" height="30" as="geometry">
                        <mxRectangle width="60" height="30" as="alternateBounds"/>
                    </mxGeometry>
                </mxCell>
                <mxCell id="65" value="id" style="shape=partialRectangle;connectable=0;top=1;left=0;bottom=0;right=0;align=left;spacingLeft=4;fontStyle=5;overflow=hidden;fontFamily=Iosevka;backgroundOutline=0;swimlaneLine=0;strokeWidth=1;rounded=1;fillColor=none;" vertex="1" parent="63">
                    <mxGeometry x="60" width="120" height="30" as="geometry">
                        <mxRectangle width="120" height="30" as="alternateBounds"/>
                    </mxGeometry>
                </mxCell>
                <mxCell id="66" value="" style="shape=tableRow;horizontal=0;startSize=0;swimlaneHead=0;swimlaneBody=0;collapsible=0;dropTarget=0;points=[[0,0.5],[1,0.5]];portConstraint=eastwest;top=1;left=0;right=0;bottom=0;fontFamily=Iosevka;spacingLeft=4;align=left;backgroundOutline=0;swimlaneLine=0;strokeWidth=1;rounded=1;fillColor=none;" vertex="1" parent="62">
                    <mxGeometry y="60" width="180" height="30" as="geometry"/>
                </mxCell>
                <mxCell id="67" value="Str" style="shape=partialRectangle;connectable=0;top=1;left=0;bottom=0;right=0;editable=1;overflow=hidden;fontFamily=Iosevka;spacingLeft=4;align=left;backgroundOutline=0;swimlaneLine=0;strokeWidth=1;rounded=1;fillColor=none;" vertex="1" parent="66">
                    <mxGeometry width="60" height="30" as="geometry">
                        <mxRectangle width="60" height="30" as="alternateBounds"/>
                    </mxGeometry>
                </mxCell>
                <mxCell id="68" value="title" style="shape=partialRectangle;connectable=0;top=1;left=0;bottom=0;right=0;align=left;spacingLeft=4;overflow=hidden;fontFamily=Iosevka;backgroundOutline=0;swimlaneLine=0;strokeWidth=1;rounded=1;fillColor=none;" vertex="1" parent="66">
                    <mxGeometry x="60" width="120" height="30" as="geometry">
                        <mxRectangle width="120" height="30" as="alternateBounds"/>
                    </mxGeometry>
                </mxCell>
                <mxCell id="69" value="" style="shape=tableRow;horizontal=0;startSize=0;swimlaneHead=0;swimlaneBody=0;collapsible=0;dropTarget=0;points=[[0,0.5],[1,0.5]];portConstraint=eastwest;top=1;left=0;right=0;bottom=0;fontFamily=Iosevka;spacingLeft=4;align=left;backgroundOutline=0;swimlaneLine=0;strokeWidth=1;rounded=1;fillColor=none;" vertex="1" parent="62">
                    <mxGeometry y="90" width="180" height="30" as="geometry"/>
                </mxCell>
                <mxCell id="70" value="Str" style="shape=partialRectangle;connectable=0;top=1;left=0;bottom=0;right=0;editable=1;overflow=hidden;fontFamily=Iosevka;spacingLeft=4;align=left;backgroundOutline=0;swimlaneLine=0;strokeWidth=1;rounded=1;fillColor=none;" vertex="1" parent="69">
                    <mxGeometry width="60" height="30" as="geometry">
                        <mxRectangle width="60" height="30" as="alternateBounds"/>
                    </mxGeometry>
                </mxCell>
                <mxCell id="71" value="description" style="shape=partialRectangle;connectable=0;top=1;left=0;bottom=0;right=0;align=left;spacingLeft=4;overflow=hidden;fontFamily=Iosevka;backgroundOutline=0;swimlaneLine=0;strokeWidth=1;rounded=1;fillColor=none;" vertex="1" parent="69">
                    <mxGeometry x="60" width="120" height="30" as="geometry">
                        <mxRectangle width="120" height="30" as="alternateBounds"/>
                    </mxGeometry>
                </mxCell>
                <mxCell id="80" value="" style="shape=tableRow;horizontal=0;startSize=0;swimlaneHead=0;swimlaneBody=0;collapsible=0;dropTarget=0;points=[[0,0.5],[1,0.5]];portConstraint=eastwest;top=1;left=0;right=0;bottom=0;fontFamily=Iosevka;spacingLeft=4;align=left;backgroundOutline=0;swimlaneLine=0;strokeWidth=1;rounded=1;fillColor=none;" vertex="1" parent="62">
                    <mxGeometry y="120" width="180" height="30" as="geometry"/>
                </mxCell>
                <mxCell id="81" value="Int" style="shape=partialRectangle;connectable=0;top=1;left=0;bottom=0;right=0;editable=1;overflow=hidden;fontFamily=Iosevka;spacingLeft=4;align=left;backgroundOutline=0;swimlaneLine=0;strokeWidth=1;rounded=1;fillColor=none;" vertex="1" parent="80">
                    <mxGeometry width="60" height="30" as="geometry">
                        <mxRectangle width="60" height="30" as="alternateBounds"/>
                    </mxGeometry>
                </mxCell>
                <mxCell id="82" value="price" style="shape=partialRectangle;connectable=0;top=1;left=0;bottom=0;right=0;align=left;spacingLeft=4;overflow=hidden;fontFamily=Iosevka;backgroundOutline=0;swimlaneLine=0;strokeWidth=1;rounded=1;fillColor=none;" vertex="1" parent="80">
                    <mxGeometry x="60" width="120" height="30" as="geometry">
                        <mxRectangle width="120" height="30" as="alternateBounds"/>
                    </mxGeometry>
                </mxCell>
                <mxCell id="77" value="" style="shape=tableRow;horizontal=0;startSize=0;swimlaneHead=0;swimlaneBody=0;collapsible=0;dropTarget=0;points=[[0,0.5],[1,0.5]];portConstraint=eastwest;top=1;left=0;right=0;bottom=0;fontFamily=Iosevka;spacingLeft=4;align=left;backgroundOutline=0;swimlaneLine=0;strokeWidth=1;rounded=1;fillColor=none;" vertex="1" parent="62">
                    <mxGeometry y="150" width="180" height="30" as="geometry"/>
                </mxCell>
                <mxCell id="78" value="Int" style="shape=partialRectangle;connectable=0;top=1;left=0;bottom=0;right=0;editable=1;overflow=hidden;fontFamily=Iosevka;spacingLeft=4;align=left;backgroundOutline=0;swimlaneLine=0;strokeWidth=1;rounded=1;fillColor=none;" vertex="1" parent="77">
                    <mxGeometry width="60" height="30" as="geometry">
                        <mxRectangle width="60" height="30" as="alternateBounds"/>
                    </mxGeometry>
                </mxCell>
                <mxCell id="79" value="share_price" style="shape=partialRectangle;connectable=0;top=1;left=0;bottom=0;right=0;align=left;spacingLeft=4;overflow=hidden;fontFamily=Iosevka;backgroundOutline=0;swimlaneLine=0;strokeWidth=1;rounded=1;fillColor=none;" vertex="1" parent="77">
                    <mxGeometry x="60" width="120" height="30" as="geometry">
                        <mxRectangle width="120" height="30" as="alternateBounds"/>
                    </mxGeometry>
                </mxCell>
                <mxCell id="72" value="" style="shape=tableRow;horizontal=0;startSize=0;swimlaneHead=0;swimlaneBody=0;collapsible=0;dropTarget=0;points=[[0,0.5],[1,0.5]];portConstraint=eastwest;top=1;left=0;right=0;bottom=0;fontFamily=Iosevka;spacingLeft=4;align=left;backgroundOutline=0;swimlaneLine=0;strokeWidth=1;rounded=1;fillColor=none;" vertex="1" parent="62">
                    <mxGeometry y="180" width="180" height="30" as="geometry"/>
                </mxCell>
                <mxCell id="73" value="Int" style="shape=partialRectangle;connectable=0;top=1;left=0;bottom=0;right=0;editable=1;overflow=hidden;fontFamily=Iosevka;spacingLeft=4;align=left;backgroundOutline=0;swimlaneLine=0;strokeWidth=1;rounded=1;fillColor=none;" vertex="1" parent="72">
                    <mxGeometry width="60" height="30" as="geometry">
                        <mxRectangle width="60" height="30" as="alternateBounds"/>
                    </mxGeometry>
                </mxCell>
                <mxCell id="74" value="discount_amount" style="shape=partialRectangle;connectable=0;top=1;left=0;bottom=0;right=0;align=left;spacingLeft=4;overflow=hidden;fontFamily=Iosevka;backgroundOutline=0;swimlaneLine=0;strokeWidth=1;rounded=1;fillColor=none;" vertex="1" parent="72">
                    <mxGeometry x="60" width="120" height="30" as="geometry">
                        <mxRectangle width="120" height="30" as="alternateBounds"/>
                    </mxGeometry>
                </mxCell>
                <mxCell id="134" value="" style="shape=tableRow;horizontal=0;startSize=0;swimlaneHead=0;swimlaneBody=0;collapsible=0;dropTarget=0;points=[[0,0.5],[1,0.5]];portConstraint=eastwest;top=1;left=0;right=0;bottom=0;fontFamily=Iosevka;spacingLeft=4;align=left;backgroundOutline=0;swimlaneLine=0;strokeWidth=1;rounded=1;fillColor=none;" vertex="1" parent="62">
                    <mxGeometry y="210" width="180" height="30" as="geometry"/>
                </mxCell>
                <mxCell id="135" value="Int" style="shape=partialRectangle;connectable=0;top=1;left=0;bottom=0;right=0;editable=1;overflow=hidden;fontFamily=Iosevka;spacingLeft=4;align=left;backgroundOutline=0;swimlaneLine=0;strokeWidth=1;rounded=1;fillColor=none;" vertex="1" parent="134">
                    <mxGeometry width="60" height="30" as="geometry">
                        <mxRectangle width="60" height="30" as="alternateBounds"/>
                    </mxGeometry>
                </mxCell>
                <mxCell id="136" value="category_id" style="shape=partialRectangle;connectable=0;top=1;left=0;bottom=0;right=0;align=left;spacingLeft=4;overflow=hidden;fontFamily=Iosevka;backgroundOutline=0;swimlaneLine=0;strokeWidth=1;rounded=1;fillColor=none;" vertex="1" parent="134">
                    <mxGeometry x="60" width="120" height="30" as="geometry">
                        <mxRectangle width="120" height="30" as="alternateBounds"/>
                    </mxGeometry>
                </mxCell>
                <mxCell id="131" value="" style="shape=tableRow;horizontal=0;startSize=0;swimlaneHead=0;swimlaneBody=0;collapsible=0;dropTarget=0;points=[[0,0.5],[1,0.5]];portConstraint=eastwest;top=1;left=0;right=0;bottom=0;fontFamily=Iosevka;spacingLeft=4;align=left;backgroundOutline=0;swimlaneLine=0;strokeWidth=1;rounded=1;fillColor=none;" vertex="1" parent="62">
                    <mxGeometry y="240" width="180" height="30" as="geometry"/>
                </mxCell>
                <mxCell id="132" value="Category" style="shape=partialRectangle;connectable=0;top=1;left=0;bottom=0;right=0;editable=1;overflow=hidden;fontFamily=Iosevka;spacingLeft=4;align=left;backgroundOutline=0;swimlaneLine=0;strokeWidth=1;rounded=1;fillColor=none;" vertex="1" parent="131">
                    <mxGeometry width="60" height="30" as="geometry">
                        <mxRectangle width="60" height="30" as="alternateBounds"/>
                    </mxGeometry>
                </mxCell>
                <mxCell id="133" value="category" style="shape=partialRectangle;connectable=0;top=1;left=0;bottom=0;right=0;align=left;spacingLeft=4;overflow=hidden;fontFamily=Iosevka;backgroundOutline=0;swimlaneLine=0;strokeWidth=1;rounded=1;fillColor=none;" vertex="1" parent="131">
                    <mxGeometry x="60" width="120" height="30" as="geometry">
                        <mxRectangle width="120" height="30" as="alternateBounds"/>
                    </mxGeometry>
                </mxCell>
                <mxCell id="137" value="" style="shape=tableRow;horizontal=0;startSize=0;swimlaneHead=0;swimlaneBody=0;collapsible=0;dropTarget=0;points=[[0,0.5],[1,0.5]];portConstraint=eastwest;top=1;left=0;right=0;bottom=0;fontFamily=Iosevka;spacingLeft=4;align=left;backgroundOutline=0;swimlaneLine=0;strokeWidth=1;rounded=1;fillColor=none;" vertex="1" parent="62">
                    <mxGeometry y="270" width="180" height="30" as="geometry"/>
                </mxCell>
                <mxCell id="138" value="Tag[]" style="shape=partialRectangle;connectable=0;top=1;left=0;bottom=0;right=0;editable=1;overflow=hidden;fontFamily=Iosevka;spacingLeft=4;align=left;backgroundOutline=0;swimlaneLine=0;strokeWidth=1;rounded=1;fillColor=none;" vertex="1" parent="137">
                    <mxGeometry width="60" height="30" as="geometry">
                        <mxRectangle width="60" height="30" as="alternateBounds"/>
                    </mxGeometry>
                </mxCell>
                <mxCell id="139" value="tags" style="shape=partialRectangle;connectable=0;top=1;left=0;bottom=0;right=0;align=left;spacingLeft=4;overflow=hidden;fontFamily=Iosevka;backgroundOutline=0;swimlaneLine=0;strokeWidth=1;rounded=1;fillColor=none;" vertex="1" parent="137">
                    <mxGeometry x="60" width="120" height="30" as="geometry">
                        <mxRectangle width="120" height="30" as="alternateBounds"/>
                    </mxGeometry>
                </mxCell>
                <mxCell id="125" value="" style="shape=tableRow;horizontal=0;startSize=0;swimlaneHead=0;swimlaneBody=0;collapsible=0;dropTarget=0;points=[[0,0.5],[1,0.5]];portConstraint=eastwest;top=1;left=0;right=0;bottom=0;fontFamily=Iosevka;align=left;spacingLeft=4;backgroundOutline=0;swimlaneLine=0;strokeWidth=1;rounded=1;fillColor=none;" vertex="1" parent="62">
                    <mxGeometry y="300" width="180" height="30" as="geometry"/>
                </mxCell>
                <mxCell id="126" value="Date" style="shape=partialRectangle;connectable=0;top=1;left=0;bottom=0;right=0;editable=1;overflow=hidden;fontFamily=Iosevka;align=left;spacingLeft=4;backgroundOutline=0;swimlaneLine=0;strokeWidth=1;rounded=1;fillColor=none;" vertex="1" parent="125">
                    <mxGeometry width="60" height="30" as="geometry">
                        <mxRectangle width="60" height="30" as="alternateBounds"/>
                    </mxGeometry>
                </mxCell>
                <mxCell id="127" value="updated_at" style="shape=partialRectangle;connectable=0;top=1;left=0;bottom=0;right=0;align=left;spacingLeft=4;overflow=hidden;fontFamily=Iosevka;backgroundOutline=0;swimlaneLine=0;strokeWidth=1;rounded=1;fillColor=none;" vertex="1" parent="125">
                    <mxGeometry x="60" width="120" height="30" as="geometry">
                        <mxRectangle width="120" height="30" as="alternateBounds"/>
                    </mxGeometry>
                </mxCell>
                <mxCell id="128" value="" style="shape=tableRow;horizontal=0;startSize=0;swimlaneHead=0;swimlaneBody=0;collapsible=0;dropTarget=0;points=[[0,0.5],[1,0.5]];portConstraint=eastwest;top=1;left=0;right=0;bottom=0;fontFamily=Iosevka;align=left;spacingLeft=4;backgroundOutline=0;swimlaneLine=0;strokeWidth=1;rounded=1;fillColor=none;" vertex="1" parent="62">
                    <mxGeometry y="330" width="180" height="30" as="geometry"/>
                </mxCell>
                <mxCell id="129" value="Date" style="shape=partialRectangle;connectable=0;top=1;left=0;bottom=0;right=0;editable=1;overflow=hidden;fontFamily=Iosevka;align=left;spacingLeft=4;backgroundOutline=0;swimlaneLine=0;strokeWidth=1;rounded=1;fillColor=none;" vertex="1" parent="128">
                    <mxGeometry width="60" height="30" as="geometry">
                        <mxRectangle width="60" height="30" as="alternateBounds"/>
                    </mxGeometry>
                </mxCell>
                <mxCell id="130" value="created_at" style="shape=partialRectangle;connectable=0;top=1;left=0;bottom=0;right=0;align=left;spacingLeft=4;overflow=hidden;fontFamily=Iosevka;backgroundOutline=0;swimlaneLine=0;strokeWidth=1;rounded=1;fillColor=none;" vertex="1" parent="128">
                    <mxGeometry x="60" width="120" height="30" as="geometry">
                        <mxRectangle width="120" height="30" as="alternateBounds"/>
                    </mxGeometry>
                </mxCell>
                <mxCell id="76" value="" style="edgeStyle=entityRelationEdgeStyle;fontSize=12;html=1;endArrow=ERoneToMany;fontFamily=Iosevka;entryX=0;entryY=0.5;entryDx=0;entryDy=0;exitX=1;exitY=0.5;exitDx=0;exitDy=0;backgroundOutline=0;swimlaneLine=0;strokeWidth=1;fillColor=none;" edge="1" parent="1" source="57" target="63">
                    <mxGeometry width="100" height="100" relative="1" as="geometry">
                        <mxPoint x="520" y="420" as="sourcePoint"/>
                        <mxPoint x="620" y="320" as="targetPoint"/>
                    </mxGeometry>
                </mxCell>
                <mxCell id="140" value="Tags" style="shape=table;startSize=30;container=1;collapsible=1;childLayout=tableLayout;fixedRows=1;rowLines=0;fontStyle=1;align=center;resizeLast=1;fontFamily=Iosevka;top=1;rounded=1;spacingLeft=4;backgroundOutline=0;swimlaneLine=0;strokeWidth=1;fillColor=none;" vertex="1" parent="1">
                    <mxGeometry x="400" y="440" width="180" height="210" as="geometry"/>
                </mxCell>
                <mxCell id="141" value="" style="shape=tableRow;horizontal=0;startSize=0;swimlaneHead=0;swimlaneBody=0;collapsible=0;dropTarget=0;points=[[0,0.5],[1,0.5]];portConstraint=eastwest;top=1;left=0;right=0;bottom=1;fontFamily=Iosevka;spacingLeft=4;align=left;backgroundOutline=0;swimlaneLine=0;strokeWidth=1;rounded=1;fillColor=none;" vertex="1" parent="140">
                    <mxGeometry y="30" width="180" height="30" as="geometry"/>
                </mxCell>
                <mxCell id="142" value="Int" style="shape=partialRectangle;connectable=0;top=1;left=0;bottom=0;right=0;fontStyle=1;overflow=hidden;fontFamily=Iosevka;spacingLeft=4;align=left;backgroundOutline=0;swimlaneLine=0;strokeWidth=1;rounded=1;fillColor=none;" vertex="1" parent="141">
                    <mxGeometry width="60" height="30" as="geometry">
                        <mxRectangle width="60" height="30" as="alternateBounds"/>
                    </mxGeometry>
                </mxCell>
                <mxCell id="143" value="id" style="shape=partialRectangle;connectable=0;top=1;left=0;bottom=0;right=0;align=left;spacingLeft=4;fontStyle=5;overflow=hidden;fontFamily=Iosevka;backgroundOutline=0;swimlaneLine=0;strokeWidth=1;rounded=1;fillColor=none;" vertex="1" parent="141">
                    <mxGeometry x="60" width="120" height="30" as="geometry">
                        <mxRectangle width="120" height="30" as="alternateBounds"/>
                    </mxGeometry>
                </mxCell>
                <mxCell id="144" value="" style="shape=tableRow;horizontal=0;startSize=0;swimlaneHead=0;swimlaneBody=0;collapsible=0;dropTarget=0;points=[[0,0.5],[1,0.5]];portConstraint=eastwest;top=1;left=0;right=0;bottom=0;fontFamily=Iosevka;spacingLeft=4;align=left;backgroundOutline=0;swimlaneLine=0;strokeWidth=1;rounded=1;fillColor=none;" vertex="1" parent="140">
                    <mxGeometry y="60" width="180" height="30" as="geometry"/>
                </mxCell>
                <mxCell id="145" value="Str" style="shape=partialRectangle;connectable=0;top=1;left=0;bottom=0;right=0;editable=1;overflow=hidden;fontFamily=Iosevka;spacingLeft=4;align=left;backgroundOutline=0;swimlaneLine=0;strokeWidth=1;rounded=1;fillColor=none;" vertex="1" parent="144">
                    <mxGeometry width="60" height="30" as="geometry">
                        <mxRectangle width="60" height="30" as="alternateBounds"/>
                    </mxGeometry>
                </mxCell>
                <mxCell id="146" value="title" style="shape=partialRectangle;connectable=0;top=1;left=0;bottom=0;right=0;align=left;spacingLeft=4;overflow=hidden;fontFamily=Iosevka;backgroundOutline=0;swimlaneLine=0;strokeWidth=1;rounded=1;fillColor=none;" vertex="1" parent="144">
                    <mxGeometry x="60" width="120" height="30" as="geometry">
                        <mxRectangle width="120" height="30" as="alternateBounds"/>
                    </mxGeometry>
                </mxCell>
                <mxCell id="147" value="" style="shape=tableRow;horizontal=0;startSize=0;swimlaneHead=0;swimlaneBody=0;collapsible=0;dropTarget=0;points=[[0,0.5],[1,0.5]];portConstraint=eastwest;top=1;left=0;right=0;bottom=0;fontFamily=Iosevka;spacingLeft=4;align=left;backgroundOutline=0;swimlaneLine=0;strokeWidth=1;rounded=1;fillColor=none;" vertex="1" parent="140">
                    <mxGeometry y="90" width="180" height="30" as="geometry"/>
                </mxCell>
                <mxCell id="148" value="Str" style="shape=partialRectangle;connectable=0;top=1;left=0;bottom=0;right=0;editable=1;overflow=hidden;fontFamily=Iosevka;spacingLeft=4;align=left;backgroundOutline=0;swimlaneLine=0;strokeWidth=1;rounded=1;fillColor=none;" vertex="1" parent="147">
                    <mxGeometry width="60" height="30" as="geometry">
                        <mxRectangle width="60" height="30" as="alternateBounds"/>
                    </mxGeometry>
                </mxCell>
                <mxCell id="149" value="description" style="shape=partialRectangle;connectable=0;top=1;left=0;bottom=0;right=0;align=left;spacingLeft=4;overflow=hidden;fontFamily=Iosevka;backgroundOutline=0;swimlaneLine=0;strokeWidth=1;rounded=1;fillColor=none;" vertex="1" parent="147">
                    <mxGeometry x="60" width="120" height="30" as="geometry">
                        <mxRectangle width="120" height="30" as="alternateBounds"/>
                    </mxGeometry>
                </mxCell>
                <mxCell id="150" value="" style="shape=tableRow;horizontal=0;startSize=0;swimlaneHead=0;swimlaneBody=0;collapsible=0;dropTarget=0;points=[[0,0.5],[1,0.5]];portConstraint=eastwest;top=1;left=0;right=0;bottom=0;fontFamily=Iosevka;spacingLeft=4;align=left;backgroundOutline=0;swimlaneLine=0;strokeWidth=1;rounded=1;fillColor=none;" vertex="1" parent="140">
                    <mxGeometry y="120" width="180" height="30" as="geometry"/>
                </mxCell>
                <mxCell id="151" value="Product[]" style="shape=partialRectangle;connectable=0;top=1;left=0;bottom=0;right=0;editable=1;overflow=hidden;fontFamily=Iosevka;spacingLeft=4;align=left;backgroundOutline=0;swimlaneLine=0;strokeWidth=1;rounded=1;fillColor=none;" vertex="1" parent="150">
                    <mxGeometry width="60" height="30" as="geometry">
                        <mxRectangle width="60" height="30" as="alternateBounds"/>
                    </mxGeometry>
                </mxCell>
                <mxCell id="152" value="products" style="shape=partialRectangle;connectable=0;top=1;left=0;bottom=0;right=0;align=left;spacingLeft=4;overflow=hidden;fontFamily=Iosevka;backgroundOutline=0;swimlaneLine=0;strokeWidth=1;rounded=1;fillColor=none;" vertex="1" parent="150">
                    <mxGeometry x="60" width="120" height="30" as="geometry">
                        <mxRectangle width="120" height="30" as="alternateBounds"/>
                    </mxGeometry>
                </mxCell>
                <mxCell id="153" value="" style="shape=tableRow;horizontal=0;startSize=0;swimlaneHead=0;swimlaneBody=0;collapsible=0;dropTarget=0;points=[[0,0.5],[1,0.5]];portConstraint=eastwest;top=1;left=0;right=0;bottom=0;fontFamily=Iosevka;align=left;spacingLeft=4;backgroundOutline=0;swimlaneLine=0;strokeWidth=1;rounded=1;fillColor=none;" vertex="1" parent="140">
                    <mxGeometry y="150" width="180" height="30" as="geometry"/>
                </mxCell>
                <mxCell id="154" value="Date" style="shape=partialRectangle;connectable=0;top=1;left=0;bottom=0;right=0;editable=1;overflow=hidden;fontFamily=Iosevka;align=left;spacingLeft=4;backgroundOutline=0;swimlaneLine=0;strokeWidth=1;rounded=1;fillColor=none;" vertex="1" parent="153">
                    <mxGeometry width="60" height="30" as="geometry">
                        <mxRectangle width="60" height="30" as="alternateBounds"/>
                    </mxGeometry>
                </mxCell>
                <mxCell id="155" value="updated_at" style="shape=partialRectangle;connectable=0;top=1;left=0;bottom=0;right=0;align=left;spacingLeft=4;overflow=hidden;fontFamily=Iosevka;backgroundOutline=0;swimlaneLine=0;strokeWidth=1;rounded=1;fillColor=none;" vertex="1" parent="153">
                    <mxGeometry x="60" width="120" height="30" as="geometry">
                        <mxRectangle width="120" height="30" as="alternateBounds"/>
                    </mxGeometry>
                </mxCell>
                <mxCell id="156" value="" style="shape=tableRow;horizontal=0;startSize=0;swimlaneHead=0;swimlaneBody=0;collapsible=0;dropTarget=0;points=[[0,0.5],[1,0.5]];portConstraint=eastwest;top=1;left=0;right=0;bottom=0;fontFamily=Iosevka;align=left;spacingLeft=4;backgroundOutline=0;swimlaneLine=0;strokeWidth=1;rounded=1;fillColor=none;" vertex="1" parent="140">
                    <mxGeometry y="180" width="180" height="30" as="geometry"/>
                </mxCell>
                <mxCell id="157" value="Date" style="shape=partialRectangle;connectable=0;top=1;left=0;bottom=0;right=0;editable=1;overflow=hidden;fontFamily=Iosevka;align=left;spacingLeft=4;backgroundOutline=0;swimlaneLine=0;strokeWidth=1;rounded=1;fillColor=none;" vertex="1" parent="156">
                    <mxGeometry width="60" height="30" as="geometry">
                        <mxRectangle width="60" height="30" as="alternateBounds"/>
                    </mxGeometry>
                </mxCell>
                <mxCell id="158" value="created_at" style="shape=partialRectangle;connectable=0;top=1;left=0;bottom=0;right=0;align=left;spacingLeft=4;overflow=hidden;fontFamily=Iosevka;backgroundOutline=0;swimlaneLine=0;strokeWidth=1;rounded=1;fillColor=none;" vertex="1" parent="156">
                    <mxGeometry x="60" width="120" height="30" as="geometry">
                        <mxRectangle width="120" height="30" as="alternateBounds"/>
                    </mxGeometry>
                </mxCell>
                <mxCell id="159" value="" style="edgeStyle=entityRelationEdgeStyle;fontSize=12;html=1;endArrow=ERmany;startArrow=ERmany;fontFamily=Iosevka;exitX=1;exitY=0.5;exitDx=0;exitDy=0;entryX=0;entryY=0.5;entryDx=0;entryDy=0;backgroundOutline=0;swimlaneLine=0;strokeWidth=1;fillColor=none;" edge="1" parent="1" source="150" target="137">
                    <mxGeometry width="100" height="100" relative="1" as="geometry">
                        <mxPoint x="590" y="530" as="sourcePoint"/>
                        <mxPoint x="740" y="390" as="targetPoint"/>
                    </mxGeometry>
                </mxCell>
            </root>
        </mxGraphModel>
    </diagram>
</mxfile>